[Header]
FileType HTR
DataType HTRS
FileVersion 1
NumSegments 64
NumFrames 3
DataFrameRate 24
EulerRotationOrder ZYX
CalibrationUnits mm
RotationUnits Degrees
GlobalAxisofGravity Y
BoneLengthAxis Y
ScaleFactor 1.0
[SegmentNames&Hierarchy]
Hips	GLOBAL
Spine	Hips
Spine1	Spine
Spine2	Spine1
Neck	Spine2
Head	Neck
LeftEye	Head
RightEye	Head
LeftShoulder	Spine2
LeftArm	LeftShoulder
LeftForeArm	LeftArm
LeftHand	LeftForeArm
LeftHandThumb1	LeftHand
LeftHandThumb2	LeftHandThumb1
LeftHandThumb3	LeftHandThumb2
LeftHandThumb4	LeftHandThumb3
LeftHandIndex1	LeftHand
LeftHandIndex2	LeftHandIndex1
LeftHandIndex3	LeftHandIndex2
LeftHandIndex4	LeftHandIndex3
LeftHandMiddle1	LeftHand
LeftHandMiddle2	LeftHandMiddle1
LeftHandMiddle3	LeftHandMiddle2
LeftHandMiddle4	LeftHandMiddle3
LeftHandRing1	LeftHand
LeftHandRing2	LeftHandRing1
LeftHandRing3	LeftHandRing2
LeftHandRing4	LeftHandRing3
LeftHandPinky1	LeftHand
LeftHandPinky2	LeftHandPinky1
LeftHandPinky3	LeftHandPinky2
LeftHandPinky4	LeftHandPinky3
RightShoulder	Spine2
RightArm	RightShoulder
RightForeArm	RightArm
RightHand	RightForeArm
RightHandPinky1	RightHand
RightHandPinky2	RightHandPinky1
RightHandPinky3	RightHandPinky2
RightHandPinky4	RightHandPinky3
RightHandRing1	RightHand
RightHandRing2	RightHandRing1
RightHandRing3	RightHandRing2
RightHandRing4	RightHandRing3
RightHandMiddle1	RightHand
RightHandMiddle2	RightHandMiddle1
RightHandMiddle3	RightHandMiddle2
RightHandMiddle4	RightHandMiddle3
RightHandIndex1	RightHand
RightHandIndex2	RightHandIndex1
RightHandIndex3	RightHandIndex2
RightHandIndex4	RightHandIndex3
RightHandThumb1	RightHand
RightHandThumb2	RightHandThumb1
RightHandThumb3	RightHandThumb2
RightHandThumb4	RightHandThumb3
LeftUpLeg	Hips
LeftLeg	LeftUpLeg
LeftFoot	LeftLeg
LeftToeBase	LeftFoot
RightUpLeg	Hips
RightLeg	RightUpLeg
RightFoot	RightLeg
RightToeBase	RightFoot
[BasePosition]
Hips	0	0	0	0	0	0	1
Spine	0	0	0	0	0	0	1
Spine1	0	0	0	0	0	0	1
Spine2	0	0	0	0	0	0	1
Neck	0	0	0	0	0	0	1
Head	0	0	0	0	0	0	1
LeftEye	0	0	0	0	0	0	1
RightEye	0	0	0	0	0	0	1
LeftShoulder	0	0	0	0	0	0	1
LeftArm	0	0	0	0	0	0	1
LeftForeArm	0	0	0	0	0	0	1
LeftHand	0	0	0	0	0	0	1
LeftHandThumb1	0	0	0	0	0	0	1
LeftHandThumb2	0	0	0	0	0	0	1
LeftHandThumb3	0	0	0	0	0	0	1
LeftHandThumb4	0	0	0	0	0	0	1
LeftHandIndex1	0	0	0	0	0	0	1
LeftHandIndex2	0	0	0	0	0	0	1
LeftHandIndex3	0	0	0	0	0	0	1
LeftHandIndex4	0	0	0	0	0	0	1
LeftHandMiddle1	0	0	0	0	0	0	1
LeftHandMiddle2	0	0	0	0	0	0	1
LeftHandMiddle3	0	0	0	0	0	0	1
LeftHandMiddle4	0	0	0	0	0	0	1
LeftHandRing1	0	0	0	0	0	0	1
LeftHandRing2	0	0	0	0	0	0	1
LeftHandRing3	0	0	0	0	0	0	1
LeftHandRing4	0	0	0	0	0	0	1
LeftHandPinky1	0	0	0	0	0	0	1
LeftHandPinky2	0	0	0	0	0	0	1
LeftHandPinky3	0	0	0	0	0	0	1
LeftHandPinky4	0	0	0	0	0	0	1
RightShoulder	0	0	0	0	0	0	1
RightArm	0	0	0	0	0	0	1
RightForeArm	0	0	0	0	0	0	1
RightHand	0	0	0	0	0	0	1
RightHandPinky1	0	0	0	0	0	0	1
RightHandPinky2	0	0	0	0	0	0	1
RightHandPinky3	0	0	0	0	0	0	1
RightHandPinky4	0	0	0	0	0	0	1
RightHandRing1	0	0	0	0	0	0	1
RightHandRing2	0	0	0	0	0	0	1
RightHandRing3	0	0	0	0	0	0	1
RightHandRing4	0	0	0	0	0	0	1
RightHandMiddle1	0	0	0	0	0	0	1
RightHandMiddle2	0	0	0	0	0	0	1
RightHandMiddle3	0	0	0	0	0	0	1
RightHandMiddle4	0	0	0	0	0	0	1
RightHandIndex1	0	0	0	0	0	0	1
RightHandIndex2	0	0	0	0	0	0	1
RightHandIndex3	0	0	0	0	0	0	1
RightHandIndex4	0	0	0	0	0	0	1
RightHandThumb1	0	0	0	0	0	0	1
RightHandThumb2	0	0	0	0	0	0	1
RightHandThumb3	0	0	0	0	0	0	1
RightHandThumb4	0	0	0	0	0	0	1
LeftUpLeg	0	0	0	0	0	0	1
LeftLeg	0	0	0	0	0	0	1
LeftFoot	0	0	0	0	0	0	1
LeftToeBase	0	0	0	0	0	0	1
RightUpLeg	0	0	0	0	0	0	1
RightLeg	0	0	0	0	0	0	1
RightFoot	0	0	0	0	0	0	1
RightToeBase	0	0	0	0	0	0	1
[Hips]
18	27.91453171	986.237854	1202.931396	2.961505175	7.238872528	3.935770273	1.0
19	20.92258644	969.189209	1277.759277	2.789399862	7.150659561	3.359254837	1.0
20	12.68422031	959.0441895	1358.043823	1.80803597	6.352820396	1.867905498	1.0
[Spine]
18	0	101.8159943	1.315000057	3.749664783	-7.152121067	-5.297745228	1.0
19	0	101.8159943	1.315000057	4.027157784	-6.47087574	-4.123472691	1.0
20	0	101.8159943	1.315000057	4.368655682	-6.131999969	-1.899016142	1.0
[Spine1]
18	0	100.8349991	-10.00800037	2.229000568	-7.694846153	2.953281164	1.0
19	0	100.8349991	-10.00800037	2.233680248	-8.115055084	2.841319323	1.0
20	0	100.8349991	-10.00800037	2.17779994	-8.081418991	2.534966469	1.0
[Spine2]
18	0	91	-13.73399925	2.029891253	-7.599444866	3.198733807	1.0
19	0	91	-13.73399925	2.057836771	-8.022854805	3.104397774	1.0
20	0	91	-13.73399925	2.02812171	-8.014562607	2.796352148	1.0
[Neck]
18	0	166.7169952	-25.16200066	-0.1706478596	5.148624897	-2.434680223	1.0
19	0	166.7169952	-25.16200066	-0.53302598	5.333585739	-2.219911814	1.0
20	0	166.7169952	-25.16200066	-0.4107715189	5.291634083	-1.105016351	1.0
[Head]
18	0	96.17900085	16.84999847	-4.348193645	10.59428978	-2.67432785	1.0
19	0	96.17900085	16.84999847	-5.006090641	10.62677383	-2.93487668	1.0
20	0	96.17900085	16.84999847	-5.921132565	11.2053566	-4.252295971	1.0
[LeftEye]
18	30.6760006	64.09500122	92.83599854	0	0	0	1.0
19	30.6760006	64.09500122	92.83599854	0	0	0	1.0
20	30.6760006	64.09500122	92.83599854	0	0	0	1.0
[RightEye]
18	-30.6760006	64.09500122	92.83499908	0	0	0	1.0
19	-30.6760006	64.09500122	92.83499908	0	0	0	1.0
20	-30.6760006	64.09500122	92.83499908	0	0	0	1.0
[LeftShoulder]
18	45.70400238	109.4599991	-26.28000069	3.007828712	-10.6456728	-14.38656044	1.0
19	45.70400238	109.4599991	-26.28000069	2.938973427	-10.60823441	-13.93846321	1.0
20	45.70400238	109.4599991	-26.28000069	2.839508772	-10.21259975	-13.8166008	1.0
[LeftArm]
18	105.923996	-5.24600029	-22.32099915	23.28917885	-23.96150589	-42.62379456	1.0
19	105.923996	-5.24600029	-22.32099915	23.16688538	-25.07024384	-40.89883041	1.0
20	105.923996	-5.24600029	-22.32099915	22.07393074	-23.44465446	-42.28935623	1.0
[LeftForeArm]
18	278.414978	-0.0009999999311	0	7.991048733e-06	-57.3639946	-0.000213644671	1.0
19	278.414978	-0.0009999999311	0	1.36167755e-05	-58.57296753	-0.0002214484412	1.0
20	278.414978	-0.0009999999311	0	7.855815056e-06	-57.07618332	-0.000190182589	1.0
[LeftHand]
18	283.2879944	0	0	1.890627265	2.83130002	11.297616	1.0
19	283.2879944	0	0	0.8540820479	0.04995687306	15.67347431	1.0
20	283.2879944	0	0	0.881195426	-1.07352376	16.59835052	1.0
[LeftHandThumb1]
18	24.6609993	-15.75	26.8239994	5.839803696	2.504242897	11.148386	1.0
19	24.6609993	-15.75	26.8239994	5.839803696	2.504242897	11.148386	1.0
20	24.6609993	-15.75	26.8239994	5.839803696	2.504242897	11.148386	1.0
[LeftHandThumb2]
18	32.29800034	-18.64699936	18.64699936	-0.01816394366	7.738310337	5.771232605	1.0
19	32.29800034	-18.64699936	18.64699936	1.882654309	8.918930054	5.390062809	1.0
20	32.29800034	-18.64699936	18.64699936	3.76512599	11.34544277	6.108860493	1.0
[LeftHandThumb3]
18	26.52600098	-15.31499958	15.31499958	0.6113522053	-4.271941662	20.77500534	1.0
19	26.52600098	-15.31499958	15.31499958	0.2898172438	-5.021284103	20.82868004	1.0
20	26.52600098	-15.31499958	15.31499958	-0.1059175804	-5.897050381	21.15004158	1.0
[LeftHandThumb4]
18	19.54599953	-11.28499985	11.28499985	0	0	0	1.0
19	19.54599953	-11.28499985	11.28499985	0	0	0	1.0
20	19.54599953	-11.28499985	11.28499985	0	0	0	1.0
[LeftHandIndex1]
18	91.09299469	-5.170999527	22.60099792	-0.7461987734	-3.517446041	-17.98973274	1.0
19	91.09299469	-5.170999527	22.60099792	-0.8129441142	-2.594685555	-20.36940002	1.0
20	91.09299469	-5.170999527	22.60099792	-0.840054512	-2.174997091	-21.40432549	1.0
[LeftHandIndex2]
18	36.76399994	0	0	-0.1981940866	1.50906682	-14.96478271	1.0
19	36.76399994	0	0	-0.1984955817	1.5101614	-14.97591209	1.0
20	36.76399994	0	0	-0.1984629631	1.510058522	-14.97474766	1.0
[LeftHandIndex3]
18	28.83100128	0	0	-0.1982306242	1.50906837	-14.9647913	1.0
19	28.83100128	0	0	-0.1985168904	1.510167837	-14.97591209	1.0
20	28.83100128	0	0	-0.1984668523	1.510042906	-14.97476387	1.0
[LeftHandIndex4]
18	23.92700005	0	0	0	0	0	1.0
19	23.92700005	0	0	0	0	0	1.0
20	23.92700005	0	0	0	0	0	1.0
[LeftHandMiddle1]
18	95.33399963	0	0	-1.625411987	3.551753044	-26.72597694	1.0
19	95.33399963	0	0	-1.744979024	3.7399683	-28.15093994	1.0
20	95.33399963	0	0	-1.830302954	3.993317366	-29.14688492	1.0
[LeftHandMiddle2]
18	36.98199844	0	0	-0.1242147759	1.198486924	-11.83308983	1.0
19	36.98199844	0	0	-0.1239811555	1.197472334	-11.82292557	1.0
20	36.98199844	0	0	-0.123526834	1.195186615	-11.79993248	1.0
[LeftHandMiddle3]
18	29.50900078	0	0	-0.169271782	1.39635098	-13.82341671	1.0
19	29.50900078	0	0	-0.1690298021	1.395353794	-13.81333828	1.0
20	29.50900078	0	0	-0.1684662849	1.393099308	-13.79042244	1.0
[LeftHandMiddle4]
18	28.3390007	0	0	0	0	0	1.0
19	28.3390007	0	0	0	0	0	1.0
20	28.3390007	0	0	0	0	0	1.0
[LeftHandRing1]
18	91.04499817	-0.4390000105	-18.65100098	-1.779507756	6.487977028	-28.56550598	1.0
19	91.04499817	-0.4390000105	-18.65100098	-1.902309537	6.511889935	-29.98757744	1.0
20	91.04499817	-0.4390000105	-18.65100098	-1.93836987	6.716173172	-30.40615654	1.0
[LeftHandRing2]
18	31.54000092	0	0	-0.3341039419	1.947413683	-19.46797752	1.0
19	31.54000092	0	0	-0.3352597356	1.95068109	-19.50228882	1.0
20	31.54000092	0	0	-0.3361478746	1.953237891	-19.52874756	1.0
[LeftHandRing3]
18	29.37700081	0	0	-0.4050121903	2.137340546	-21.45784378	1.0
19	29.37700081	0	0	-0.4063058794	2.140614033	-21.49238968	1.0
20	29.37700081	0	0	-0.407278955	2.143070936	-21.51833534	1.0
[LeftHandRing4]
18	26.47500038	0	0	0	0	0	1.0
19	26.47500038	0	0	0	0	0	1.0
20	26.47500038	0	0	0	0	0	1.0
[LeftHandPinky1]
18	80.77799988	-4.887000084	-38.06099701	-2.187091589	5.0566926	-33.13008118	1.0
19	80.77799988	-4.887000084	-38.06099701	-2.233165741	4.619542122	-33.59876633	1.0
20	80.77799988	-4.887000084	-38.06099701	-2.27705884	4.38619709	-34.0466156	1.0
[LeftHandPinky2]
18	36	0	0	-0.2726940215	1.764262676	-17.57265663	1.0
19	36	0	0	-0.2733804584	1.766353369	-17.59445953	1.0
20	36	0	0	-0.2716060877	1.760716319	-17.5363903	1.0
[LeftHandPinky3]
18	21.14200211	0	0	-0.2727117836	1.764231086	-17.572649	1.0
19	21.14200211	0	0	-0.2733632922	1.766329288	-17.59399986	1.0
20	21.14200211	0	0	-0.2715553939	1.760649323	-17.53552246	1.0
[LeftHandPinky4]
18	19.75699997	0	0	0	0	0	1.0
19	19.75699997	0	0	0	0	0	1.0
20	19.75699997	0	0	0	0	0	1.0
[RightShoulder]
18	-45.70000076	109.4620056	-26.28000069	1.194158435	2.373856306	13.72264576	1.0
19	-45.70000076	109.4620056	-26.28000069	1.088554144	1.859931231	13.88458443	1.0
20	-45.70000076	109.4620056	-26.28000069	1.144478559	1.973724246	14.51469612	1.0
[RightArm]
18	-105.9280014	-5.248000145	-22.32099915	17.27253342	-9.097475052	59.47708893	1.0
19	-105.9280014	-5.248000145	-22.32099915	16.72253609	-9.294560432	59.5544014	1.0
20	-105.9280014	-5.248000145	-22.32099915	17.92594147	-7.727336884	58.2572403	1.0
[RightForeArm]
18	-278.414978	0	0	1.144097865e-07	10.87569523	4.957604688e-06	1.0
19	-278.414978	0	0	5.328831776e-06	10.15226173	1.425798837e-05	1.0
20	-278.414978	0	0	-1.596803713e-06	9.127084732	4.603760999e-07	1.0
[RightHand]
18	-283.2879944	0	0.0009999999311	4.933439255	-2.025253057	18.78533173	1.0
19	-283.2879944	0	0.0009999999311	4.187403202	-6.058980942	20.54829788	1.0
20	-283.2879944	0	0.0009999999311	3.720232725	-9.433858871	22.05238914	1.0
[RightHandPinky1]
18	-80.76699829	-4.885000229	-38.06000137	-1.611275792	-3.807552814	27.63675308	1.0
19	-80.76699829	-4.885000229	-38.06000137	-1.563149571	-3.906119823	27.23906708	1.0
20	-80.76699829	-4.885000229	-38.06000137	-1.690929532	-3.281658888	27.51953888	1.0
[RightHandPinky2]
18	-36	0	0.0009999999311	-0.5564950109	-2.202779293	28.37290382	1.0
19	-36	0	0.0009999999311	-0.5509688258	-2.192505836	28.22864342	1.0
20	-36	0	0.0009999999311	-0.5373094082	-2.166882277	27.86975288	1.0
[RightHandPinky3]
18	-21.14200211	0	0	-0.172203362	-1.252318978	15.65845108	1.0
19	-21.14200211	0	0	-0.1691051722	-1.241207838	15.51600361	1.0
20	-21.14200211	0	0	-0.1612072736	-1.212417126	15.14716625	1.0
[RightHandPinky4]
18	-19.75699997	0	0	0	0	0	1.0
19	-19.75699997	0	0	0	0	0	1.0
20	-19.75699997	0	0	0	0	0	1.0
[RightHandRing1]
18	-91.03599548	-0.4390000105	-18.65100098	-1.212148666	-2.708953142	22.9675808	1.0
19	-91.03599548	-0.4390000105	-18.65100098	-1.19351697	-2.845923424	22.69167328	1.0
20	-91.03599548	-0.4390000105	-18.65100098	-1.195130944	-2.837728739	22.71500587	1.0
[RightHandRing2]
18	-31.54000092	0	0	-1.500163794	-3.413811445	47.43484497	1.0
19	-31.54000092	0	0	-1.497271776	-3.411169052	47.38631821	1.0
20	-31.54000092	0	0	-1.487087607	-3.401787043	47.21487427	1.0
[RightHandRing3]
18	-29.37700081	0	0	-0.3734509349	-1.823511481	23.14612389	1.0
19	-29.37700081	0	0	-0.3719166219	-1.819928288	23.09800529	1.0
20	-29.37700081	0	0	-0.3664981723	-1.807188153	22.92696571	1.0
[RightHandRing4]
18	-26.47500038	0	0	0	0	0	1.0
19	-26.47500038	0	0	0	0	0	1.0
20	-26.47500038	0	0	0	0	0	1.0
[RightHandMiddle1]
18	-95.32500458	0	0	-0.9815615416	-0.4224124253	19.58901978	1.0
19	-95.32500458	0	0	-0.9516440034	-0.5709212422	19.11597824	1.0
20	-95.32500458	0	0	-0.9460505843	-0.6791213751	19.02404785	1.0
[RightHandMiddle2]
18	-36.98199844	0	0	-0.8513817191	-2.677731752	35.27062607	1.0
19	-36.98199844	0	0	-0.8496976495	-2.675348997	35.23448563	1.0
20	-36.98199844	0	0	-0.8443080187	-2.667711496	35.11888504	1.0
[RightHandMiddle3]
18	-29.50900078	0	0	-0.2933159471	-1.625407696	20.48209572	1.0
19	-29.50900078	0	0	-0.2923078835	-1.622710824	20.44648933	1.0
20	-29.50900078	0	0	-0.2890565991	-1.613984346	20.33139801	1.0
[RightHandMiddle4]
18	-28.3390007	0	0.0009999999311	0	0	0	1.0
19	-28.3390007	0	0.0009999999311	0	0	0	1.0
20	-28.3390007	0	0.0009999999311	0	0	0	1.0
[RightHandIndex1]
18	-91.08300018	-5.167999744	22.60099792	-0.6620304585	3.992550611	19.07385826	1.0
19	-91.08300018	-5.167999744	22.60099792	-0.614725709	3.873830795	18.93893814	1.0
20	-91.08300018	-5.167999744	22.60099792	-0.6250466108	3.788800478	19.34565926	1.0
[RightHandIndex2]
18	-36.76399994	0	0	-0.3968879282	-1.877369881	23.87204552	1.0
19	-36.76399994	0	0	-0.395573169	-1.874398112	23.83191872	1.0
20	-36.76399994	0	0	-0.393453449	-1.869583726	23.76686668	1.0
[RightHandIndex3]
18	-28.83100128	0	0	-0.07932103425	-0.8542969227	10.60886288	1.0
19	-28.83100128	0	0	-0.07872664928	-0.8511047959	10.56877804	1.0
20	-28.83100128	0	0	-0.07775691152	-0.8459290862	10.50381947	1.0
[RightHandIndex4]
18	-23.92700005	0	0	0	0	0	1.0
19	-23.92700005	0	0	0	0	0	1.0
20	-23.92700005	0	0	0	0	0	1.0
[RightHandThumb1]
18	-24.64799881	-15.72700024	26.82600021	12.78110313	-2.167885065	-4.410644054	1.0
19	-24.64799881	-15.72700024	26.82600021	12.78110313	-2.167885065	-4.410644054	1.0
20	-24.64799881	-15.72700024	26.82600021	12.78110313	-2.167885065	-4.410644054	1.0
[RightHandThumb2]
18	-32.29800034	-18.64699936	18.64699936	9.585448265	-18.98757744	-10.5024271	1.0
19	-32.29800034	-18.64699936	18.64699936	9.742728233	-18.73009491	-10.4396162	1.0
20	-32.29800034	-18.64699936	18.64699936	10.26149368	-17.31739426	-10.12434578	1.0
[RightHandThumb3]
18	-26.52600098	-15.31399918	15.31399918	-15.44718361	-4.93866396	-11.21673775	1.0
19	-26.52600098	-15.31399918	15.31399918	-15.4484129	-4.935768127	-11.21767139	1.0
20	-26.52600098	-15.31399918	15.31399918	-15.46456432	-4.897527695	-11.22972584	1.0
[RightHandThumb4]
18	-19.54599953	-11.28499985	11.28499985	0	0	0	1.0
19	-19.54599953	-11.28499985	11.28499985	0	0	0	1.0
20	-19.54599953	-11.28499985	11.28499985	0	0	0	1.0
[LeftUpLeg]
18	82.07800293	-67.51699829	-15.99599934	13.33311653	12.51735878	-1.62464869	1.0
19	82.07800293	-67.51699829	-15.99599934	19.20444298	14.01522541	0.6056757569	1.0
20	82.07800293	-67.51699829	-15.99599934	24.23203087	16.02378654	3.827241182	1.0
[LeftLeg]
18	0	-443.7049866	2.845999956	5.180985451	-1.851858139	5.665904522	1.0
19	0	-443.7049866	2.845999956	3.020154476	-2.076819897	7.764962196	1.0
20	0	-443.7049866	2.845999956	3.126162767	-6.866624355	9.427640915	1.0
[LeftFoot]
18	0	-444.2789917	-29.8219986	-18.92737007	-18.12572289	-0.4596868455	1.0
19	0	-444.2789917	-29.8219986	-17.40079689	-19.6081295	-2.077793598	1.0
20	0	-444.2789917	-29.8219986	-7.297142982	-15.28582287	-2.992073059	1.0
[LeftToeBase]
18	0	-87.28699493	107.1060028	-8.143919945	1.087522818e-07	-6.702390465e-07	1.0
19	0	-87.28699493	107.1060028	-10.47104645	-2.981974376e-06	-2.691952886e-06	1.0
20	0	-87.28699493	107.1060028	-22.29469109	-3.544013225e-07	-9.079024039e-07	1.0
[RightUpLeg]
18	-82.07800293	-67.51699829	-15.99599934	-34.03243256	-8.832671165	-1.74927187	1.0
19	-82.07800293	-67.51699829	-15.99599934	-35.19133759	-8.172385216	-1.010228515	1.0
20	-82.07800293	-67.51699829	-15.99599934	-37.81367874	-7.271363258	0.156961903	1.0
[RightLeg]
18	0	-443.7049866	2.861999989	2.838882923	-1.504050612	-4.890675068	1.0
19	0	-443.7049866	2.861999989	7.965986252	-0.5028223991	-4.1984725	1.0
20	0	-443.7049866	2.861999989	20.69187164	0.2154215127	-2.587600708	1.0
[RightFoot]
18	0	-444.2770081	-29.83799934	-2.247051477	-0.1725304276	7.769666195	1.0
19	0	-444.2770081	-29.83799934	0.3832723498	-0.1465310752	2.824397087	1.0
20	0	-444.2770081	-29.83799934	4.640117645	0.05330946296	0.4660298228	1.0
[RightToeBase]
18	0	-87.28699493	107.1060028	-6.376456738	8.50335141e-07	-1.956336746e-07	1.0
19	0	-87.28699493	107.1060028	-9.520155907	7.7871249e-07	8.232046298e-07	1.0
20	0	-87.28699493	107.1060028	-12.22854042	7.321775684e-07	-4.327959857e-07	1.0
[EndOfFile]
